<svg width="21" height="21" viewBox="0 0 21 21" fill="none" xmlns="http://www.w3.org/2000/svg">
<mask id="mask0_162_133" style="mask-type:alpha" maskUnits="userSpaceOnUse" x="0" y="0" width="21" height="21">
<rect x="0.458496" y="0.238281" width="20" height="20" fill="#D9D9D9"/>
</mask>
<g mask="url(#mask0_162_133)">
<path d="M13.7493 17.9107V15.6647H11.5033V13.9615H13.7493V11.7155H15.4525V13.9615H17.6985V15.6647H15.4525V17.9107H13.7493ZM4.92196 16.3462C4.45055 16.3462 4.04883 16.1802 3.7168 15.8482C3.38477 15.5161 3.21875 15.1144 3.21875 14.643V5.76646C3.21875 5.29505 3.38477 4.89333 3.7168 4.5613C4.04883 4.22926 4.45055 4.06325 4.92196 4.06325H5.61691V2.56592H7.21718V4.06325H11.5033V2.56592H13.1036V4.06325H13.7985C14.2699 4.06325 14.6716 4.22926 15.0037 4.5613C15.3357 4.89333 15.5017 5.29505 15.5017 5.76646V10.3198C15.2164 10.2646 14.9325 10.2362 14.6501 10.2347C14.3677 10.2332 14.0839 10.2541 13.7985 10.2976V8.7074H4.92196V14.643H10.0149C10.003 14.9284 10.0157 15.2122 10.0531 15.4946C10.0906 15.777 10.1637 16.0608 10.2725 16.3462H4.92196ZM4.92196 7.21007H13.7985V5.76646H4.92196V7.21007Z" fill="white"/>
</g>
</svg>
